<svg xmlns="http://www.w3.org/2000/svg" viewBox="0 0 417 324"><path d="M316.331-11.45h408.983v318.576H316.331z" style="fill:#fff;fill-rule:evenodd" transform="translate(-312.026 15.982)"/><path d="M355.552 265.07c-11.583-.895-13.716-1.845-21.919-9.759-4.694-4.529-6.697-8.128-8.06-14.482-1.135-5.296-1.158-218.081-.024-223.004 2.713-11.77 12.002-21.119 23.382-23.53 6.415-1.36 331.045-1.185 336.151.18C695.526-2.73 702.073 3.35 707.32 15.13c1.276 2.867 1.367 9.416 1.561 112.253.206 108.856.201 109.226-1.382 114.442-3.915 12.892-13.439 21.29-26.22 23.123-3.437.492-147.22.656-205.672.234l-7.04-.05V216.59l3.092-3.698c4.64-5.55 7.76-11.306 10.26-18.919 2.08-6.334 2.241-7.622 2.133-17.123-.11-9.664-.276-10.716-2.78-17.717-3.23-9.032-7.4-15.619-13.684-21.618-8.02-7.655-13.45-10.61-27.151-14.778-5.57-1.694-19.087-1.286-25.903.781-8.398 2.548-12.817 4.56-17.504 7.972-10.446 7.603-18.379 18.61-21.93 30.43-2.435 8.106-2.693 21.833-.551 29.39 2.03 7.168 6.066 15.14 10.362 20.47l3.748 4.652v48.699l-3.996.083-12.747.264c-4.814.1-12.177-.084-16.362-.407zm304.796-87.845v-7.997l-47.755.196-47.755.196-.226 6.086c-.124 3.347-.032 6.857.205 7.8l.43 1.715h95.101zm0-47.944v-7.995l-71.727.194-71.728.195-.222 6.789c-.122 3.734-.047 7.244.166 7.8.32.832 13.13 1.012 71.95 1.012h71.561zm0-47.942v-7.99H372.676V89.33h287.672z" style="opacity:1;fill:#00002b;fill-opacity:1;fill-rule:evenodd;stroke:#00002f;stroke-width:0;stroke-miterlimit:4;stroke-dasharray:none;stroke-dashoffset:0;stroke-opacity:1;paint-order:stroke fill markers" transform="translate(-312.026 15.982)"/><path d="M417.743 216.003c-12.552-3.38-22.653-13.164-27.343-26.485-1.713-4.868-1.875-6.277-1.54-13.43.286-6.127.81-9.055 2.246-12.556 5.297-12.915 13.345-20.349 26.787-24.743 12.557-4.106 29.567.401 39.593 10.49 3.844 3.868 8.945 13.411 10.264 19.2 1.03 4.527 1.019 14.83-.022 18.645-1.753 6.424-6.846 15.527-10.54 18.838-5.446 4.88-14.278 9.62-19.521 10.48-6.305 1.032-15.186.836-19.924-.44zM404.64 267.44c0-42.23-.255-39.976 4.259-37.75 8.09 3.992 25.81 4.388 37.169.832 3.322-1.04 6.15-1.78 6.285-1.646s.157 17.648.049 38.917l-.198 38.672-11.647-11.655-11.648-11.656-3.867 3.736c-2.127 2.054-6.988 6.935-10.803 10.846s-7.535 7.434-8.268 7.828c-1.26.678-1.332-1.368-1.332-38.124z" style="opacity:1;fill:#00002b;fill-opacity:1;fill-rule:evenodd;stroke:#00002f;stroke-width:0;stroke-miterlimit:4;stroke-dasharray:none;stroke-dashoffset:0;stroke-opacity:1;paint-order:stroke fill markers" transform="translate(-312.026 15.982)"/></svg>