<svg xmlns="http://www.w3.org/2000/svg" width="79" height="79" style="background-color:#fff" viewBox="-0.5 -0.5 79 79"><defs><linearGradient id="a" x1="0%" x2="0%" y1="100%" y2="0%"><stop offset="0%" style="stop-color:#0cc"/><stop offset="100%" style="stop-color:#0ff"/></linearGradient></defs><g pointer-events="none"><path fill="url(#a)" d="M0 0h78v78H0Z"/><path fill="#fff" d="M37.76 7.81v2.59c-5.81.25-11.18 2.23-15.6 5.45l1.47 1.93c4-2.9 8.87-4.7 14.13-4.94v2.45h2.44v-2.45c5.25.23 10.1 2.01 14.1 4.88l1.41-1.96c-4.4-3.17-9.74-5.12-15.51-5.36V7.81Zm-27.91.33L8.13 9.85l18.25 18.33 1.72-1.71Zm54.42 3.88-8.71 8.7 1.72 1.72 8.72-8.7Zm-25.36 8.3c-4.56 0-8.67 3.19-8.67 7.54v6.16h-2.5c-.67 0-1.22.55-1.22 1.22v17.53c0 .67.55 1.21 1.22 1.21h22.49c.52 0 .95-.33 1.13-.78l16.66 16.56 1.71-1.73-18.28-18.17V35.24c0-.67-.55-1.22-1.22-1.22H47.7v-5.85c0-4.1-3.43-7.85-8.79-7.85m23.27 1.88-1.96 1.41c2.91 4 4.71 8.86 4.96 14.14h-2.54v2.43h2.55a26.23 26.23 0 0 1-4.98 14.27l1.97 1.4c3.22-4.44 5.21-9.83 5.44-15.67h2.58v-2.43h-2.58c-.26-5.8-2.24-11.15-5.44-15.55m-46.43.09a28.5 28.5 0 0 0-5.37 15.46H7.8v2.43h2.58c.23 5.82 2.2 11.19 5.4 15.61l1.98-1.4c-2.92-4.02-4.71-8.9-4.95-14.21h2.46v-2.43h-2.45c.24-5.22 2.02-10.03 4.87-14.01Zm23.16.46c4.3 0 6.36 2.6 6.36 5.42v5.85h-12.6v-6.16c0-2.78 2.79-5.11 6.24-5.11m-9.95 13.71h20.05v3.82h-3.75v2.43h3.75v2.57h-3.76v2.43h3.49l-1.44 1.45 1.71 1.71v.68H28.96Zm10.02 2.5c-2.07 0-3.79 1.7-3.79 3.77 0 1.66 1.09 3.08 2.58 3.58l.04 2.7 2.44-.03-.04-2.68a3.79 3.79 0 0 0 2.55-3.57c0-2.07-1.71-3.77-3.78-3.77m0 2.43c.76 0 1.34.58 1.34 1.34s-.58 1.35-1.34 1.35-1.35-.59-1.35-1.35.59-1.34 1.35-1.34M20.67 55.7l-8.83 8.68 1.71 1.73 8.82-8.66Zm2.96 4.57-1.49 1.91c4.42 3.23 9.8 5.21 15.62 5.47v2.54h2.44v-2.54c5.81-.25 11.17-2.21 15.59-5.42l-1.5-1.9c-4 2.87-8.84 4.64-14.09 4.88v-2.44h-2.44v2.43a26.05 26.05 0 0 1-14.13-4.93"/></g><path d="M.469 39.5V.502h77.94l.111 24.73c.062 13.6.112 31.15.112 38.997v14.269H.469Zm40.17 29.89v-1.243l1.129-.11c4.899-.477 9.402-2.01 13.277-4.516l1.178-.762-.336-.457a21 21 0 0 0-.72-.915l-.386-.456-.92.595c-3.435 2.22-7.835 3.735-12.093 4.164l-1.13.114v-2.538h-2.343v2.538l-1.13-.112c-4.106-.406-8.528-1.914-11.779-4.017l-1.222-.79-.556.647c-1.005 1.168-1.017 1.112.42 2.033 3.574 2.29 7.582 3.743 11.867 4.305 1.053.138 2.024.25 2.157.25.19 0 .243.272.243 1.256v1.255h2.343zm20.338-9.97-9.125-9.126v-7.518c0-6.76-.028-7.548-.277-7.824-.23-.255-.538-.306-1.841-.306H48.17l-.003-3.305c-.002-3.718-.192-4.903-1.01-6.335-.633-1.106-2.22-2.584-3.373-3.143-1.935-.937-4.675-1.216-6.751-.687-3.073.782-5.461 3.052-6.092 5.79-.094.404-.172 2.297-.174 4.207l-.004 3.473h-1.58c-1.444 0-1.604.032-1.842.372-.228.326-.26 1.513-.26 9.54 0 8.946.008 9.177.335 9.503.328.329.558.335 12.05.335 11.573 0 11.72-.004 12.058-.342l.342-.341 8.317 8.205 8.317 8.205.8-.788.801-.789zm-42.504 2.775 4.34-4.252-.832-.854-.831-.854-4.27 4.227c-2.349 2.325-4.3 4.291-4.335 4.369-.064.141 1.292 1.616 1.485 1.616.057 0 2.056-1.913 4.443-4.252m-1.067-6.753.786-.562-.842-1.288c-2.122-3.246-3.623-7.61-3.97-11.54l-.121-1.38h2.44v-2.344h-2.392l.098-1.38c.265-3.748 1.752-8.062 4.009-11.635.37-.587.607-1.123.525-1.193-.496-.424-1.55-1.19-1.64-1.19-.198 0-1.737 2.503-2.493 4.054-1.488 3.053-2.49 6.616-2.755 9.8l-.122 1.46-1.297.05-1.297.048v2.33h2.678v.904c0 2.661 1.347 7.621 2.898 10.675 1.124 2.211 2.297 4.002 2.53 3.86.098-.059.533-.36.965-.67m46.75-1.464c2.095-3.567 3.41-7.72 3.857-12.177l.113-1.13h2.472v-2.343h-2.463l-.192-1.682c-.527-4.638-1.986-8.799-4.412-12.586q-.832-1.297-1.036-1.171c-.598.365-1.598 1.145-1.601 1.25-.002.065.326.63.728 1.255 2.188 3.39 3.6 7.512 4.044 11.805l.117 1.13h-2.55v2.343h2.55l-.118 1.13c-.45 4.319-1.863 8.439-4.124 12.018-.358.567-.65 1.077-.65 1.134s.395.37.878.697l.879.594.312-.38c.171-.21.71-1.059 1.196-1.887m-42.69-34.103a2089 2089 0 0 1-9.073-9.162l-2.038-2.091-.834.82-.833.821 9.061 9.186 9.062 9.187.845-.845.845-.845zm44.192-6.484-.838-.837-4.346 4.348-4.346 4.35.83.842.83.842 4.353-4.354 4.354-4.354zm-37.764 2.603c2.786-1.396 6.237-2.375 9.02-2.56l1.38-.091v2.39h2.344V13.34l1.465.099c3.628.243 7.808 1.648 11.227 3.771.767.477 1.42.866 1.45.866.105 0 1.256-1.634 1.256-1.782 0-.192-2.43-1.706-3.933-2.45-2.752-1.363-6.718-2.503-9.456-2.72-2.146-.169-2.009-.066-2.009-1.503V8.369h-2.343v1.237c0 1.389-.045 1.44-1.24 1.44-1.252 0-4.475.666-6.51 1.345-2.391.797-4.583 1.833-6.435 3.041l-1.38.9.69.94.688.939 1.11-.716c.61-.394 1.814-1.069 2.676-1.5" style="opacity:.953;fill:#004c5c;fill-opacity:1;fill-rule:evenodd;stroke:none;stroke-width:2.31844401;stroke-miterlimit:4;stroke-dasharray:none;stroke-opacity:1" transform="translate(-.5 -.5)"/><path d="M33.173 34.412c-.05-.131-.067-1.808-.037-3.726l.054-3.488.497-.898c.586-1.058 1.492-1.845 2.862-2.487.913-.427 1.154-.464 3.001-.463 1.857 0 2.087.037 3.052.482 1.263.581 2.374 1.712 2.82 2.869.28.725.321 1.283.321 4.347v3.515l-6.24.043c-5.273.037-6.252.007-6.33-.194M29.424 44.521V36.99H49.51v3.85h-3.682v2.343h3.6820000000000004v2.678h-3.682v2.343h3.417l-.704.718-.705.718.837.824c.52.512.837.97.837 1.207v.383H29.424Zm10.586 4.914.628-.104v-1.306c0-1.172.035-1.317.346-1.415.557-.177 1.487-1.083 1.857-1.807.518-1.015.388-2.695-.284-3.664-.64-.923-1.994-1.639-3.101-1.639-1.077 0-2.427.72-3.072 1.638-.578.822-.768 2.282-.43 3.304.253.77 1.17 1.81 1.84 2.088.5.207.5.21.5 1.61v1.402l.545-.001c.3-.001.826-.049 1.171-.106" style="opacity:.953;fill:#045;fill-opacity:1;fill-rule:evenodd;stroke:none;stroke-width:2.31844401;stroke-miterlimit:4;stroke-dasharray:none;stroke-opacity:1" transform="translate(-.5 -.5)"/><path d="M-.506-.339h78.707v78.674H-.506z" style="fill:none;fill-rule:evenodd;stroke:#004c5c;stroke-width:.99167061;stroke-opacity:1"/><path d="M39.132 44.569c-1.017-.365-1.329-1.58-.594-2.315.85-.85 2.268-.24 2.268.975 0 .83-.958 1.597-1.674 1.34" style="opacity:.953;fill:#0a495a;fill-opacity:1;fill-rule:evenodd;stroke:none;stroke-width:2.31844401;stroke-miterlimit:4;stroke-dasharray:none;stroke-opacity:1" transform="translate(-.5 -.5)"/><path d="M-.536 39.5V-.335h79.67v79.67H-.536Zm41.174 29.893v-1.238l1.214-.114c4.535-.424 9.481-2.119 13.193-4.52l1.178-.762-.336-.457a21 21 0 0 0-.72-.914l-.386-.457-1.255.777c-3.377 2.09-7.634 3.522-11.842 3.987l-1.046.115v-2.543h-2.343v2.543l-1.046-.113c-4.071-.442-8.14-1.798-11.507-3.836l-1.59-.962-.63.724c-.346.398-.61.836-.584.974.101.556 3.597 2.557 6.268 3.588 1.786.69 4.318 1.342 6.244 1.607.782.107 1.724.246 2.092.309l.67.113.048 1.209.05 1.208h2.328zm20.342-9.972-9.12-9.125-.046-7.588c-.053-8.878.166-8.062-2.17-8.062H48.17l-.001-3.054c-.002-4.937-.372-6.228-2.344-8.177-1.732-1.713-3.755-2.484-6.533-2.49-3.39-.008-6.533 1.9-7.907 4.802l-.538 1.136-.058 3.892-.057 3.891h-1.459c-2.34 0-2.108-1.072-2.108 9.772 0 8.7.019 9.316.298 9.596.28.28 1.015.301 11.8.342 10.741.04 11.54.024 12.087-.254l.586-.298 8.28 8.162 8.28 8.16.803-.79.803-.79zm-42.518 2.772 4.35-4.253-.838-.851-.838-.85-4.33 4.331-4.33 4.332.713.772c.392.425.76.773.817.773.058 0 2.063-1.914 4.456-4.254m45.005-7.085c2.406-3.73 4.106-8.674 4.546-13.223l.118-1.213h2.467v-2.344h-2.459l-.204-1.715c-.416-3.49-1.256-6.445-2.686-9.444-.92-1.932-2.229-4.035-2.598-4.177-.139-.053-.563.148-.962.456-.393.303-.744.572-.78.598s.366.77.894 1.654c2.152 3.607 3.386 7.31 3.858 11.582l.116 1.046h-2.544v2.344h2.544l-.116 1.046c-.47 4.254-1.794 8.215-3.924 11.742-.466.77-.847 1.445-.847 1.499 0 .086 1.68 1.278 1.8 1.278.027 0 .376-.508.777-1.13m-46.103.367.828-.595-.723-1.12c-.83-1.288-1.711-3-2.345-4.559-.873-2.147-1.765-6.094-1.767-7.818v-.711H15.7v-2.344h-2.392l.115-1.38c.318-3.81 1.52-7.298 4.087-11.853l.524-.931-.854-.652-.854-.651-.382.48c-.615.77-2.15 3.57-2.803 5.112-1.071 2.53-1.877 5.753-2.094 8.377l-.118 1.415-1.297.049-1.297.048v2.33h2.678v.878c.003 2.173 1.088 6.644 2.267 9.331 1.066 2.43 2.713 5.189 3.097 5.189.087 0 .531-.268.987-.595m2.1-37.637c-4.957-5.024-9.058-9.135-9.114-9.135s-.452.358-.88.795l-.776.795 9.056 9.174 9.055 9.174.835-.834.835-.835zm46.194-4.447-.838-.837-4.346 4.348-4.346 4.35.83.842.83.842 4.353-4.354 4.354-4.354zM28 15.948c2.77-1.38 7.208-2.553 9.666-2.557l.628-.001v2.343h2.343V13.34l1.434.11c3.773.29 8.294 1.854 11.75 4.063.485.31.912.563.948.563.037 0 .344-.378.684-.84.507-.692.58-.886.41-1.09-.25-.302-2.533-1.686-3.951-2.395-2.414-1.208-6.645-2.4-9.35-2.633-1.896-.164-1.925-.188-1.925-1.584V8.37h-2.343v1.138c0 .662-.084 1.222-.2 1.339-.111.11-.544.2-.963.2-1.499.001-5.068.776-7.415 1.61-1.624.578-4.468 2.002-5.85 2.93l-1.123.753.668.943.669.942 1.458-.888a42 42 0 0 1 2.462-1.388" style="opacity:.953;fill:#025;fill-opacity:1;fill-rule:evenodd;stroke:none;stroke-width:2.31844401;stroke-miterlimit:4;stroke-dasharray:none;stroke-opacity:1" transform="translate(-.5 -.5)"/><path d="m33.553 34.525-.475-.071.058-3.628c.052-3.323.087-3.684.415-4.297.538-1.006 1.685-2.05 2.903-2.641 1.037-.504 1.181-.528 3.096-.526 1.809.003 2.103.047 2.962.442 1.035.476 2.282 1.61 2.736 2.487.337.652.561 3.016.571 6.03l.008 2.109-1.28.108c-1.372.116-10.204.105-10.994-.013M29.424 44.521V36.99H49.51v3.85h-3.682v2.343h3.6820000000000004v2.678h-3.682v2.343h3.426l-.702.703-.703.702.83.878c.457.482.83 1.033.83 1.222 0 .344-.013.345-10.041.345H29.424Zm10.691 4.917.523-.105v-2.446l.705-.474c2.506-1.683 2.376-5.122-.247-6.528-.352-.188-.927-.292-1.642-.296-.935-.004-1.211.067-1.84.477-.966.629-1.424 1.195-1.671 2.069-.467 1.648.161 3.28 1.647 4.278l.705.474v2.6550000000000002h.648c.357 0 .884-.047 1.172-.104" style="opacity:.953;fill:#025;fill-opacity:1;fill-rule:evenodd;stroke:none;stroke-width:2.31844401;stroke-miterlimit:4;stroke-dasharray:none;stroke-opacity:1" transform="translate(-.5 -.5)"/><path d="M38.474 44.08c-.87-1.107.213-2.6 1.501-2.067.28.116.581.346.67.512.731 1.366-1.22 2.764-2.17 1.555" style="opacity:.953;fill:#025;fill-opacity:1;fill-rule:evenodd;stroke:none;stroke-width:2.31844401;stroke-miterlimit:4;stroke-dasharray:none;stroke-opacity:1" transform="translate(-.5 -.5)"/></svg>