<svg xmlns="http://www.w3.org/2000/svg" xml:space="preserve" viewBox="0 0 512 512"><path d="M328.2 64H183.8C170.7 64 160 74.7 160 87.9v336.3c0 13.1 10.7 23.8 23.8 23.8h144.3c13.1 0 23.8-10.7 23.8-23.8V87.9C352 74.7 341.3 64 328.2 64M240 99.9c0-2.1 1.7-3.9 3.9-3.9h24.3c2.1 0 3.9 1.7 3.9 3.9v.3c0 2.1-1.7 3.9-3.9 3.9h-24.3c-2.1 0-3.9-1.7-3.9-3.9zM228 96c2.2 0 4 1.8 4 4s-1.8 4-4 4-4-1.8-4-4 1.8-4 4-4m28 336.1c-8.9 0-16.1-7.2-16.1-16.1s7.2-16.1 16.1-16.1 16.1 7.2 16.1 16.1-7.3 16.1-16.1 16.1m80-48.1H176V128h160z" style="fill:#00002b" transform="matrix(1.10969 0 0 1 -26.837 16.097)"/><path d="m188.827 267.453-7.153-3.346-6.812 3.995.972-7.837-5.905-5.244 7.754-1.497 3.163-7.237 3.82 6.912 7.86.772-5.394 5.769z" style="opacity:1;fill:#216778;fill-opacity:1;fill-rule:evenodd;stroke:none;stroke-width:1.51181102;stroke-miterlimit:4;stroke-dasharray:none;stroke-opacity:.94117647" transform="rotate(2.914 175.516 505.605)"/><path d="m188.827 267.453-7.153-3.346-6.812 3.995.972-7.837-5.905-5.244 7.754-1.497 3.163-7.237 3.82 6.912 7.86.772-5.394 5.769z" style="opacity:1;fill:#216778;fill-opacity:1;fill-rule:evenodd;stroke:none;stroke-width:1.51181102;stroke-miterlimit:4;stroke-dasharray:none;stroke-opacity:.94117647" transform="rotate(2.914 237.426 2939.34)"/><path d="m188.827 267.453-7.153-3.346-6.812 3.995.972-7.837-5.905-5.244 7.754-1.497 3.163-7.237 3.82 6.912 7.86.772-5.394 5.769z" style="opacity:1;fill:#216778;fill-opacity:1;fill-rule:evenodd;stroke:none;stroke-width:1.51181102;stroke-miterlimit:4;stroke-dasharray:none;stroke-opacity:.94117647" transform="rotate(2.914 225.354 2464.762)"/><path d="m188.827 267.453-7.153-3.346-6.812 3.995.972-7.837-5.905-5.244 7.754-1.497 3.163-7.237 3.82 6.912 7.86.772-5.394 5.769z" style="opacity:1;fill:#216778;fill-opacity:1;fill-rule:evenodd;stroke:none;stroke-width:1.51181102;stroke-miterlimit:4;stroke-dasharray:none;stroke-opacity:.94117647" transform="rotate(2.914 213.9 2014.52)"/><path d="m188.827 267.453-7.153-3.346-6.812 3.995.972-7.837-5.905-5.244 7.754-1.497 3.163-7.237 3.82 6.912 7.86.772-5.394 5.769z" style="opacity:1;fill:#216778;fill-opacity:1;fill-rule:evenodd;stroke:none;stroke-width:1.51181102;stroke-miterlimit:4;stroke-dasharray:none;stroke-opacity:.94117647" transform="rotate(2.914 200.899 1503.436)"/><path d="m188.827 267.453-7.153-3.346-6.812 3.995.972-7.837-5.905-5.244 7.754-1.497 3.163-7.237 3.82 6.912 7.86.772-5.394 5.769z" style="opacity:1;fill:#216778;fill-opacity:1;fill-rule:evenodd;stroke:none;stroke-width:1.51181102;stroke-miterlimit:4;stroke-dasharray:none;stroke-opacity:.94117647" transform="rotate(2.914 188.517 1016.69)"/><path d="M184.493 274.264h142.394v3.096H184.493z" style="fill:#1c1f24;fill-rule:evenodd"/><path d="M203.395 268.438h7.72v14.493h-7.72zM300.594 268.438h7.72v14.493h-7.72zM277.688 268.438h7.72v14.493h-7.72zM253.542 268.438h7.72v14.493h-7.72zM227.54 268.438h7.72v14.493h-7.72z" style="fill:#fff;fill-rule:evenodd;stroke-width:.87013102"/></svg>