<svg xmlns="http://www.w3.org/2000/svg" xml:space="preserve" viewBox="0 0 512 512"><path d="M328.2 64H183.8C170.7 64 160 74.7 160 87.9v336.3c0 13.1 10.7 23.8 23.8 23.8h144.3c13.1 0 23.8-10.7 23.8-23.8V87.9C352 74.7 341.3 64 328.2 64M240 99.9c0-2.1 1.7-3.9 3.9-3.9h24.3c2.1 0 3.9 1.7 3.9 3.9v.3c0 2.1-1.7 3.9-3.9 3.9h-24.3c-2.1 0-3.9-1.7-3.9-3.9zM228 96c2.2 0 4 1.8 4 4s-1.8 4-4 4-4-1.8-4-4 1.8-4 4-4m28 336.1c-8.9 0-16.1-7.2-16.1-16.1s7.2-16.1 16.1-16.1 16.1 7.2 16.1 16.1-7.3 16.1-16.1 16.1m80-48.1H176V128h160z" style="fill:#00002b" transform="matrix(1.10969 0 0 1 -26.837 16.097)"/><path d="M167.158 144.252h178.921v255.69H167.158z" style="fill:#fff;fill-rule:evenodd;stroke-width:1.00523102"/><text xml:space="preserve" x="189.78" y="364.653" style="font-style:normal;font-variant:normal;font-weight:400;font-stretch:normal;font-size:64px;line-height:1.25;font-family:Armata;-inkscape-font-specification:Armata;letter-spacing:0;word-spacing:0;fill:#000;fill-opacity:1;stroke:none"><tspan x="189.78" y="364.653" style="font-size:10.66666698px;fill:#fff">Authorize</tspan></text><text xml:space="preserve" x="277.93" y="364.653" style="font-style:normal;font-variant:normal;font-weight:400;font-stretch:normal;font-size:64px;line-height:1.25;font-family:Armata;-inkscape-font-specification:Armata;letter-spacing:0;word-spacing:0;fill:#000;fill-opacity:1;stroke:none"><tspan x="277.93" y="364.653" style="font-size:10.66666698px;fill:#fff">Reject</tspan></text><ellipse cx="256.31" cy="431.826" rx="16.716" ry="14.549" style="opacity:1;fill:#fff;fill-opacity:1;fill-rule:evenodd;stroke:none;stroke-width:5.2774024;stroke-miterlimit:4;stroke-dasharray:21.10960901,10.5548045;stroke-dashoffset:0;stroke-opacity:.94117647"/><ellipse cx="258.786" cy="116.082" rx="16.716" ry="2.786" style="opacity:1;fill:#fff;fill-opacity:1;fill-rule:evenodd;stroke:none;stroke-width:4.75222588;stroke-miterlimit:4;stroke-dasharray:19.0089035,9.50445175;stroke-dashoffset:0;stroke-opacity:.94117647"/><ellipse cx="225.664" cy="115.773" rx="2.167" ry="1.857" style="opacity:1;fill:#fff;fill-opacity:1;fill-rule:evenodd;stroke:none;stroke-width:4.75222588;stroke-miterlimit:4;stroke-dasharray:19.0089035,9.50445175;stroke-dashoffset:0;stroke-opacity:.94117647"/><path d="M172.924 463.59c-8.789-1.135-17.438-7.562-20.55-15.267l-1.436-3.558V99.305l1.913-4.025c2.453-5.159 4.636-7.707 9.049-10.558 7.175-4.638 1.212-4.381 97.072-4.175l85.746.184 4.162 1.972c5.548 2.628 9.903 6.8 12.404 11.88l2.007 4.076V445.41l-2.007 4.076c-3.779 7.677-11.48 12.958-20.624 14.145-5.696.739-161.997.702-167.736-.04m90.976-16.592c9.56-3.632 13.78-13.155 9.572-21.6-4.993-10.02-19.785-12.568-28.487-4.908-3.982 3.505-5.47 6.655-5.47 11.584 0 4.969 1.49 8.08 5.6 11.697 4.873 4.29 12.527 5.605 18.785 3.227m82.212-174.808.156-128H167.344v127.793c0 101.655.158 127.858.774 128.107.426.173 40.613.265 89.306.207l88.532-.107zM229.117 119.08c1.751-1.226 1.82-4.163.138-5.846-2.665-2.665-7.43-.702-7.43 3.06 0 2.107 1.9 3.75 4.334 3.75.87 0 2.201-.433 2.958-.963m44.87-.119c1.675-1.873 1.618-3.952-.157-5.727-1.17-1.17-2.063-1.238-16.434-1.238H242.2l-1.52 1.52c-1.854 1.854-1.899 2.784-.237 4.897l1.284 1.632h15.646c14.12 0 15.74-.106 16.615-1.084" style="opacity:1;fill:#2c89a0;fill-opacity:1;fill-rule:evenodd;stroke:none;stroke-width:2.9421277;stroke-miterlimit:4;stroke-dasharray:11.76851099,5.8842555;stroke-dashoffset:0;stroke-opacity:.94117647"/><path d="M171.059 463.587c-7.372-1.44-15.083-7.317-18.36-13.994l-1.761-3.59-.158-173.2-.158-173.202 1.796-3.962c4.009-8.84 13.668-15.599 21.219-14.846 2.003.2 2.37.119 1.446-.318-1.719-.813 162.197-.869 167.158-.058 8.339 1.364 16.228 7.233 19.54 14.536l1.82 4.015v346.134l-1.811 3.993c-2.15 4.743-6.598 9.44-11.1 11.72-7.126 3.612-2.865 3.458-93.55 3.384-45.813-.037-84.549-.313-86.081-.612m93.745-17.194c12.41-5.516 13.46-20.892 1.89-27.673-11.465-6.719-26.915.947-26.915 13.354 0 11.568 13.647 19.376 25.025 14.319m81.05-109.764c.226-34.788.412-92.319.412-127.845V144.19H167.345l.001 117.165c.001 64.441.184 121.972.407 127.845l.405 10.68h177.284zm-116.88-218.104c1.817-1.818 1.898-2.828.377-4.706-1.552-1.917-4.832-1.917-6.384 0-.628.775-1.142 1.81-1.142 2.298 0 1.336 2.86 3.927 4.334 3.927.712 0 1.978-.683 2.814-1.52m44.463.236c1.933-1.52 2.065-2.996.449-4.994-1.175-1.451-1.285-1.463-15.963-1.655-14.308-.188-14.835-.152-16.462 1.128-2.01 1.581-2.189 3.82-.443 5.566 1.169 1.17 2.063 1.239 16.013 1.239 14.01 0 14.86-.067 16.406-1.284" style="opacity:1;fill:#e6e6e6;fill-opacity:1;fill-rule:evenodd;stroke:none;stroke-width:2.9421277;stroke-miterlimit:4;stroke-dasharray:11.76851099,5.88425550000000008;stroke-dashoffset:0;stroke-opacity:.94117647"/><path d="m188.827 267.453-7.153-3.346-6.812 3.995.972-7.837-5.905-5.244 7.754-1.497 3.163-7.237 3.82 6.912 7.86.772-5.394 5.769z" style="opacity:1;fill:#216778;fill-opacity:1;fill-rule:evenodd;stroke:none;stroke-width:1.51181102;stroke-miterlimit:4;stroke-dasharray:none;stroke-opacity:.94117647" transform="rotate(2.914 309.542 559)"/><path d="m188.827 267.453-7.153-3.346-6.812 3.995.972-7.837-5.905-5.244 7.754-1.497 3.163-7.237 3.82 6.912 7.86.772-5.394 5.769z" style="opacity:1;fill:#216778;fill-opacity:1;fill-rule:evenodd;stroke:none;stroke-width:1.51181102;stroke-miterlimit:4;stroke-dasharray:none;stroke-opacity:.94117647" transform="rotate(2.914 371.453 2992.734)"/><path d="m188.827 267.453-7.153-3.346-6.812 3.995.972-7.837-5.905-5.244 7.754-1.497 3.163-7.237 3.82 6.912 7.86.772-5.394 5.769z" style="opacity:1;fill:#216778;fill-opacity:1;fill-rule:evenodd;stroke:none;stroke-width:1.51181102;stroke-miterlimit:4;stroke-dasharray:none;stroke-opacity:.94117647" transform="rotate(2.914 359.38 2518.156)"/><path d="m188.827 267.453-7.153-3.346-6.812 3.995.972-7.837-5.905-5.244 7.754-1.497 3.163-7.237 3.82 6.912 7.86.772-5.394 5.769z" style="opacity:1;fill:#216778;fill-opacity:1;fill-rule:evenodd;stroke:none;stroke-width:1.51181102;stroke-miterlimit:4;stroke-dasharray:none;stroke-opacity:.94117647" transform="rotate(2.914 347.927 2067.915)"/><path d="m188.827 267.453-7.153-3.346-6.812 3.995.972-7.837-5.905-5.244 7.754-1.497 3.163-7.237 3.82 6.912 7.86.772-5.394 5.769z" style="opacity:1;fill:#216778;fill-opacity:1;fill-rule:evenodd;stroke:none;stroke-width:1.51181102;stroke-miterlimit:4;stroke-dasharray:none;stroke-opacity:.94117647" transform="rotate(2.914 334.926 1556.83)"/><path d="m188.827 267.453-7.153-3.346-6.812 3.995.972-7.837-5.905-5.244 7.754-1.497 3.163-7.237 3.82 6.912 7.86.772-5.394 5.769z" style="opacity:1;fill:#216778;fill-opacity:1;fill-rule:evenodd;stroke:none;stroke-width:1.51181102;stroke-miterlimit:4;stroke-dasharray:none;stroke-opacity:.94117647" transform="rotate(2.914 322.544 1070.084)"/><path d="M187.381 267.518h142.394v3.096H187.381z" style="fill:#1c1f24;fill-rule:evenodd"/><path d="M206.283 261.693h7.72v14.493h-7.72zM303.483 261.693h7.72v14.493h-7.72zM280.576 261.693h7.72v14.493h-7.72zM256.431 261.693h7.72v14.493h-7.72zM230.428 261.693h7.72v14.493h-7.72z" style="fill:#fff;fill-rule:evenodd;stroke-width:.87013102"/></svg>