<svg xmlns="http://www.w3.org/2000/svg" width="740.844" height="98.342" viewBox="0 0 196.015 26.02"><path d="M14.431 197.583h35.287v5.292H14.431z" style="fill:#fff;fill-opacity:1;stroke-width:.29325774" transform="translate(-14.43 -197.539)"/><path d="M29.667 202.654h5.88v20.337h-5.88z" style="fill:#fff;fill-opacity:1;stroke-width:.31675714" transform="translate(-14.43 -197.539)"/><path d="M86.595 202.921h3.475v7.216h-3.475z" style="fill:#fff;fill-opacity:1;stroke-width:.26458332" transform="translate(-14.43 -197.539)"/><path d="M221.7 36.332q-.003.001-.005.002-.078.013-.158.02-.075.006-.148.007-.068.004-.133.004h-.139q-.069 0-.139-.002l-.125-.004-.13-.004-.141-.007-.023-.002q-.22.018-.44.033-.262.017-.525.021c-.181.004-.36.008-.541.004-.084-.003-.168-.012-.252-.017l2.615 18.593 66.64 43.362-3.68-26.168-55.048-35.819a4 4 0 0 1-.697.045l-.596-.011c-.24-.004-.482-.012-.723-.016q-.352-.007-.703-.008-.345 0-.691-.002-.336-.002-.672 0-.345 0-.69.002l-.693.004-.693.004q-.363.003-.725-.004a16 16 0 0 1-.744-.037z" style="fill:#fff;fill-opacity:1;stroke-width:1.78006387" transform="scale(.26458)"/><path d="M138.196 171.06h5.888v24.756h-5.888z" style="fill:#fff;fill-opacity:1;stroke-width:.26860335" transform="matrix(.97592 .21814 -.20596 .97856 -14.43 -197.539)"/><path d="M72.591 220.904h5.078v25.123h-5.078z" style="fill:#fff;fill-opacity:1;stroke-width:.26458332" transform="rotate(-13.08 -868.736 -35.834)"/><path d="M105.557 207.251h14.967v4.544h-14.967zM135.244 202.119h4.009v6.949h-4.009z" style="fill:#fff;fill-opacity:1;stroke-width:.26458332" transform="translate(-14.43 -197.539)"/><path d="M135.222 207.26h34.84v4.638h-34.84z" style="fill:#fff;fill-opacity:1;stroke-width:.26768371" transform="translate(-14.43 -197.539)"/><path d="M215.683 153.931h5.888v24.712h-5.888z" style="fill:#fff;fill-opacity:1;stroke-width:.26835325" transform="matrix(.976 .21776 -.20633 .97848 -14.43 -197.539)"/><path d="M149.65 238.808h5.078v25.123h-5.078z" style="fill:#fff;fill-opacity:1;stroke-width:.26458332" transform="rotate(-13.08 -868.736 -35.834)"/><path d="M184.527 207.227h14.967v4.544h-14.967z" style="fill:#fff;fill-opacity:1;stroke-width:.26458332" transform="translate(-14.43 -197.539)"/><path d="M54.756 197.583H90.09v5.316H54.756z" style="fill:#fff;fill-opacity:1;stroke-width:.29410824" transform="translate(-14.43 -197.539)"/><path d="M99.711 197.583h25.79v5.292h-25.79z" style="fill:#fff;fill-opacity:1;stroke-width:.25070944" transform="translate(-14.43 -197.539)"/><path d="M135.241 197.583h34.744v5.292h-34.744z" style="fill:#fff;fill-opacity:1;stroke-width:.29099125" transform="translate(-14.43 -197.539)"/><path d="M178.718 197.607h25.908v5.268h-25.908z" style="fill:#fff;fill-opacity:1;stroke-width:.25072142" transform="translate(-14.43 -197.539)"/><path d="M55.658 207.165v4.7h34.415v-4.7H75.037a1 1 0 0 1-.114.005l-.158-.003-.096-.002h-2.024l-.114.005q-.07.002-.143.001l-.08-.006a.5.5 0 0 1-.137 0z" style="fill:#fff;fill-opacity:1;stroke-width:.26783913" transform="translate(-14.43 -197.539)"/><path d="M54.765 202.63h5.88v19.771h-5.88z" style="fill:#fff;fill-opacity:1;stroke-width:.3123107" transform="translate(-14.43 -197.539)"/><path d="M164.226 213.004h5.88v9.467h-5.88z" style="fill:#fff;fill-opacity:1;stroke-width:.21611819" transform="translate(-14.43 -197.539)"/><path d="M135.123 217.309h34.791v5.127h-34.791z" style="fill:#fff;fill-opacity:1;stroke-width:.28660348" transform="translate(-14.43 -197.539)"/></svg>