<svg xmlns="http://www.w3.org/2000/svg" viewBox="0 0 196.015 26.02"><path d="M14.431 197.583h35.287v5.292H14.431z" style="fill:#0b1728;fill-opacity:1;stroke-width:.29325774" transform="translate(-14.43 -197.539)"/><path d="M29.667 202.654h5.88v20.337h-5.88z" style="fill:#0b1728;fill-opacity:1;stroke-width:.31675714" transform="translate(-14.43 -197.539)"/><path d="M86.595 202.921h3.475v7.216h-3.475z" style="fill:#0b1728;fill-opacity:1;stroke-width:.26458332" transform="translate(-14.43 -197.539)"/><path d="M229.328 36.355q-.3.045-.65.041c-.02.002-.033.01-.053.01l-.15.004-.223.004-.22.008q-.109.002-.218.008l-.232.004-.223-.002h-2.768l-.204-.002h-.416l-.205-.002h-.196l-.187-.002-.194-.002H223l-.192-.002-.192-.004-.185-.002-.186-.004-.181-.004q-.089-.004-.176-.004l-.166-.008q-.083-.003-.164-.008-.064-.004-.13-.01-.06.005-.122.006l-.157.004-.152.004q-.075.003-.148.008-.075.003-.149.008-.079.002-.158.002-.073 0-.146-.002l-.135-.008q-.078-.007-.154-.02l-.004-.001q-.255.015-.508.021c-.181.004-.36.008-.541.004-.084-.003-.168-.013-.252-.018l2.615 18.594 66.64 43.361-3.68-26.168z" style="fill:#0b1728;fill-opacity:1;stroke-width:1.78006387" transform="scale(.26458)"/><path d="M138.196 171.06h5.888v24.756h-5.888z" style="fill:#0b1728;fill-opacity:1;stroke-width:.26860335" transform="matrix(.97592 .21814 -.20596 .97856 -14.43 -197.539)"/><path d="M72.591 220.904h5.078v25.123h-5.078z" style="fill:#0b1728;fill-opacity:1;stroke-width:.26458332" transform="rotate(-13.08 -868.736 -35.834)"/><path d="M105.557 207.251h14.967v4.544h-14.967zM135.244 202.119h4.009v6.949h-4.009z" style="fill:#0b1728;fill-opacity:1;stroke-width:.26458332" transform="translate(-14.43 -197.539)"/><path d="M135.222 207.26h34.84v4.638h-34.84z" style="fill:#0b1728;fill-opacity:1;stroke-width:.26768371" transform="translate(-14.43 -197.539)"/><path d="M215.683 153.931h5.888v24.712h-5.888z" style="fill:#0b1728;fill-opacity:1;stroke-width:.26835325" transform="matrix(.976 .21776 -.20633 .97848 -14.43 -197.539)"/><path d="M149.65 238.808h5.078v25.123h-5.078z" style="fill:#0b1728;fill-opacity:1;stroke-width:.26458332" transform="rotate(-13.08 -868.736 -35.834)"/><path d="M184.527 207.227h14.967v4.544h-14.967z" style="fill:#0b1728;fill-opacity:1;stroke-width:.26458332" transform="translate(-14.43 -197.539)"/><path d="M54.756 197.583H90.09v5.316H54.756z" style="fill:#0b1728;fill-opacity:1;stroke-width:.29410824" transform="translate(-14.43 -197.539)"/><path d="M99.711 197.583h25.79v5.292h-25.79z" style="fill:#0b1728;fill-opacity:1;stroke-width:.25070944" transform="translate(-14.43 -197.539)"/><path d="M135.241 197.583h34.744v5.292h-34.744z" style="fill:#0b1728;fill-opacity:1;stroke-width:.29099125" transform="translate(-14.43 -197.539)"/><path d="M178.718 197.607h25.908v5.268h-25.908z" style="fill:#0b1728;fill-opacity:1;stroke-width:.25072142" transform="translate(-14.43 -197.539)"/><path d="M155.82 36.38v17.768h130.07V36.381h-56.827q-.189.017-.393.017c-.016.002-.028.008-.045.008l-.15.004-.223.004-.22.008q-.109.003-.218.008l-.232.004-.223-.002h-2.768l-.204-.002h-.416l-.205-.002h-.196l-.187-.002-.194-.002H223l-.192-.002-.192-.004-.185-.002-.186-.004-.181-.004q-.089-.004-.176-.004l-.166-.008q-.083-.002-.164-.008l-.108-.007h-.054l-.09.003-.157.004-.152.004q-.075.002-.148.008-.075.002-.149.008-.079.002-.158.002-.073 0-.146-.002l-.135-.008q-.078-.007-.154-.02h-.082q-.216.013-.43.02c-.18.004-.36.008-.541.004-.101-.004-.202-.016-.303-.024-.163.02-.331.03-.52 0z" style="fill:#0b1728;fill-opacity:1;stroke-width:1.01230538" transform="scale(.26458)"/><path d="M54.765 202.63h5.88v19.771h-5.88z" style="fill:#0b1728;fill-opacity:1;stroke-width:.3123107" transform="translate(-14.43 -197.539)"/><path d="M164.226 213.004h5.88v9.467h-5.88z" style="fill:#0b1728;fill-opacity:1;stroke-width:.21611819" transform="translate(-14.43 -197.539)"/><path d="M135.123 217.309h34.791v5.127h-34.791z" style="fill:#0b1728;fill-opacity:1;stroke-width:.28660348" transform="translate(-14.43 -197.539)"/></svg>