<svg xmlns="http://www.w3.org/2000/svg" xml:space="preserve" viewBox="0 0 512 512"><path d="M328.2 64H183.8C170.7 64 160 74.7 160 87.9v336.3c0 13.1 10.7 23.8 23.8 23.8h144.3c13.1 0 23.8-10.7 23.8-23.8V87.9C352 74.7 341.3 64 328.2 64M240 99.9c0-2.1 1.7-3.9 3.9-3.9h24.3c2.1 0 3.9 1.7 3.9 3.9v.3c0 2.1-1.7 3.9-3.9 3.9h-24.3c-2.1 0-3.9-1.7-3.9-3.9zM228 96c2.2 0 4 1.8 4 4s-1.8 4-4 4-4-1.8-4-4 1.8-4 4-4m28 336.1c-8.9 0-16.1-7.2-16.1-16.1s7.2-16.1 16.1-16.1 16.1 7.2 16.1 16.1-7.3 16.1-16.1 16.1m80-48.1H176V128h160z" style="fill:#00002b" transform="matrix(1.10969 0 0 1 -26.837 16.097)"/><path d="M167.158 144.252h178.921v255.69H167.158z" style="fill:#fff;fill-rule:evenodd;stroke-width:1.00523102"/><path d="M173.969 345.461h166.539v35.289H173.969z" style="fill:#006680;fill-rule:evenodd;stroke-width:.92235911"/><path d="M257.548 345.987h82.341v34.236h-82.341z" style="fill:#003380;fill-rule:evenodd;stroke-width:.93655002"/><text xml:space="preserve" x="189.78" y="364.653" style="font-style:normal;font-variant:normal;font-weight:400;font-stretch:normal;font-size:64px;line-height:1.25;font-family:Armata;-inkscape-font-specification:Armata;letter-spacing:0;word-spacing:0;fill:#000;fill-opacity:1;stroke:none"><tspan x="189.78" y="364.653" style="font-size:10.66666698px;fill:#fff">Authorize</tspan></text><text xml:space="preserve" x="277.93" y="364.653" style="font-style:normal;font-variant:normal;font-weight:400;font-stretch:normal;font-size:64px;line-height:1.25;font-family:Armata;-inkscape-font-specification:Armata;letter-spacing:0;word-spacing:0;fill:#000;fill-opacity:1;stroke:none"><tspan x="277.93" y="364.653" style="font-size:10.66666698px;fill:#fff">Reject</tspan></text><path d="M258.556 158.261h.46v173.81h-.46z" style="fill:none;fill-rule:evenodd;stroke:#00112b;stroke-width:4.75222588;stroke-miterlimit:4;stroke-dasharray:19.0089035,9.50445175;stroke-dashoffset:0"/><ellipse cx="256.31" cy="431.826" rx="16.716" ry="14.549" style="opacity:1;fill:#fff;fill-opacity:1;fill-rule:evenodd;stroke:none;stroke-width:5.2774024;stroke-miterlimit:4;stroke-dasharray:21.10960901,10.5548045;stroke-dashoffset:0;stroke-opacity:.94117647"/><ellipse cx="258.786" cy="116.082" rx="16.716" ry="2.786" style="opacity:1;fill:#fff;fill-opacity:1;fill-rule:evenodd;stroke:none;stroke-width:4.75222588;stroke-miterlimit:4;stroke-dasharray:19.0089035,9.50445175;stroke-dashoffset:0;stroke-opacity:.94117647"/><ellipse cx="225.664" cy="115.773" rx="2.167" ry="1.857" style="opacity:1;fill:#fff;fill-opacity:1;fill-rule:evenodd;stroke:none;stroke-width:4.75222588;stroke-miterlimit:4;stroke-dasharray:19.0089035,9.50445175;stroke-dashoffset:0;stroke-opacity:.94117647"/></svg>